<svg width="89" height="36" viewBox="0 0 89 36" fill="none" xmlns="http://www.w3.org/2000/svg">
<path d="M70.757 34.8467H67.391C67.391 32.7757 67.4 30.7727 67.391 28.7697C67.382 27.3797 66.907 26.7317 65.959 26.7587C65.7018 26.7747 65.4506 26.8433 65.2209 26.9603C64.9913 27.0772 64.7881 27.24 64.6238 27.4386C64.4596 27.6372 64.3379 27.8674 64.2662 28.115C64.1945 28.3625 64.1744 28.6221 64.207 28.8778C64.19 30.8448 64.207 32.8107 64.207 34.8467H60.83C60.83 31.1847 60.83 27.5181 60.83 23.8467C62.83 23.3807 63.81 23.5638 64.191 24.4748C66.723 23.0588 68.131 23.1427 70.033 24.8577C70.6348 24.3041 71.3641 23.9077 72.156 23.7038C72.7403 23.4907 73.3666 23.4187 73.984 23.4938C74.6013 23.5688 75.1922 23.7888 75.7083 24.1357C76.2245 24.4826 76.6513 24.9466 76.954 25.4899C77.2567 26.0331 77.4267 26.6403 77.45 27.2618C77.6034 29.3524 77.6491 31.4494 77.587 33.5447C77.598 33.9447 77.587 34.3508 77.587 34.8378H74.223C74.223 32.8118 74.215 30.8107 74.223 28.8107C74.229 27.7697 73.999 26.8778 72.771 26.7728C72.4935 26.7628 72.2172 26.8125 71.9606 26.9185C71.704 27.0245 71.4731 27.1843 71.2835 27.3872C71.094 27.59 70.9501 27.8312 70.8617 28.0943C70.7733 28.3575 70.7424 28.6366 70.771 28.9128C70.748 30.8678 70.757 32.8337 70.757 34.8467Z" fill="black"/>
<path d="M10.03 4.85875C8.43 2.91975 5.791 2.57876 3.315 3.93276C2.364 2.60876 1.089 3.49276 0 3.23276V17.6028H3.113V13.6128C5.905 15.0728 8.605 14.7018 10.144 12.7928C10.9587 11.6251 11.3861 10.231 11.3656 8.80739C11.3452 7.38375 10.878 6.0025 10.03 4.85875ZM5.707 11.5828C5.00485 11.5595 4.33966 11.2624 3.85376 10.7551C3.36786 10.2477 3.09983 9.57025 3.107 8.86775C3.10176 8.18544 3.36189 7.5278 3.83247 7.03371C4.30306 6.53962 4.94724 6.24776 5.629 6.21976C5.96815 6.21964 6.30374 6.28902 6.61504 6.42363C6.92633 6.55825 7.20674 6.75523 7.43895 7.00243C7.67116 7.24963 7.85023 7.5418 7.96513 7.8609C8.08003 8.18001 8.12832 8.51927 8.107 8.85776C8.1321 9.19512 8.08959 9.53408 7.98195 9.85478C7.87431 10.1755 7.70372 10.4715 7.48018 10.7254C7.25664 10.9793 6.98465 11.186 6.68016 11.3334C6.37567 11.4808 6.04482 11.5659 5.707 11.5838V11.5828Z" fill="black"/>
<path d="M26.038 3.99675C25.0411 3.31053 23.8337 2.99906 22.6293 3.11747C21.4248 3.23588 20.3011 3.77652 19.457 4.64373C18.575 5.78839 18.0862 7.18718 18.0631 8.63201C18.0401 10.0768 18.484 11.4905 19.329 12.6627C20.967 14.7177 23.635 15.0767 26.182 13.5817C26.446 14.4467 27.615 14.6587 29.438 14.1817V3.21273C28.304 3.58173 26.975 2.67475 26.038 3.99675ZM23.82 11.4157C23.4811 11.4158 23.1457 11.3468 22.8344 11.2129C22.5231 11.0791 22.2423 10.8831 22.0093 10.6371C21.7762 10.391 21.5958 10.1 21.479 9.78189C21.3622 9.46375 21.3115 9.12513 21.33 8.78674C21.2951 8.44874 21.3306 8.10719 21.4344 7.78363C21.5382 7.46006 21.7079 7.16153 21.9328 6.90687C22.1578 6.65221 22.4331 6.44695 22.7414 6.30407C23.0497 6.16119 23.3843 6.0838 23.724 6.07675C24.4056 6.10013 25.052 6.38537 25.5286 6.87318C26.0052 7.36098 26.2754 8.01377 26.283 8.69574C26.2925 9.37655 26.0437 10.0357 25.5867 10.5404C25.1297 11.0451 24.4984 11.3579 23.82 11.4157Z" fill="black"/>
<path d="M44.438 23.2968C43.6442 23.2766 42.8546 23.418 42.1171 23.7123C41.3796 24.0066 40.7096 24.4476 40.1477 25.0087C39.5859 25.5699 39.1439 26.2393 38.8486 26.9764C38.5533 27.7135 38.4109 28.5029 38.43 29.2968C38.412 30.1013 38.5587 30.901 38.8612 31.6468C39.1637 32.3925 39.6156 33.0685 40.189 33.6331C40.7624 34.1977 41.4453 34.639 42.1956 34.93C42.9459 35.2209 43.7478 35.3552 44.552 35.3248C45.3451 35.3536 46.1355 35.217 46.8729 34.9238C47.6104 34.6306 48.2787 34.1871 48.8354 33.6215C49.3922 33.0559 49.8251 32.3807 50.1067 31.6387C50.3882 30.8967 50.5123 30.1043 50.471 29.3118C50.5142 28.509 50.3876 27.7061 50.0994 26.9555C49.8113 26.205 49.3681 25.5236 48.7987 24.956C48.2294 24.3883 47.5468 23.9472 46.7953 23.6613C46.0439 23.3754 45.2407 23.2512 44.438 23.2968ZM44.47 32.1388C44.0988 32.1379 43.732 32.0587 43.3935 31.9065C43.055 31.7542 42.7524 31.5322 42.5055 31.255C42.2586 30.9778 42.073 30.6517 41.9607 30.2979C41.8484 29.9441 41.8121 29.5706 41.854 29.2018C41.8367 28.842 41.8941 28.4826 42.0224 28.1461C42.1508 27.8095 42.3474 27.5032 42.5998 27.2463C42.8523 26.9895 43.1551 26.7876 43.4894 26.6534C43.8236 26.5193 44.182 26.4557 44.542 26.4668C45.2685 26.4906 45.9573 26.7961 46.4627 27.3187C46.9681 27.8412 47.2504 28.5398 47.25 29.2668C47.2516 30.0131 46.9621 30.7306 46.4429 31.2667C45.9238 31.8029 45.216 32.1164 44.47 32.1388Z" fill="black"/>
<path d="M45.106 10.5457V8.70575H86.337C86.5269 9.30022 86.5651 9.93276 86.448 10.5457H45.106Z" fill="#040404"/>
<path d="M88.785 31.7347C88.7741 32.3534 88.5788 32.9548 88.224 33.4617C86.868 35.3067 84.889 35.3618 82.893 35.1438C82.0412 35.1416 81.2172 34.8399 80.5655 34.2914C79.9137 33.743 79.4756 32.9827 79.328 32.1438L79.165 31.3067C80.516 31.2797 81.949 30.6328 83.105 31.9758C83.419 32.3388 84.019 32.2918 84.513 32.1978C84.918 32.1208 85.375 32.0298 85.38 31.5038C85.385 30.9778 84.938 30.8368 84.523 30.8248C83.3794 30.7675 82.2463 30.5785 81.146 30.2617C79.446 28.9257 79.036 27.8758 79.538 26.1458C80.067 24.3278 81.495 23.7027 83.174 23.4797C85.61 23.1587 88.5 24.1637 88.522 27.2797C87.272 27.1417 85.876 27.8407 84.822 26.5307C84.568 26.2167 83.97 26.3107 83.522 26.3847C83.144 26.4467 82.786 26.5898 82.764 27.0468C82.739 27.5388 83.115 27.6467 83.498 27.6887C84.187 27.7577 84.879 27.7997 85.568 27.8537C88.093 28.8697 88.866 29.8127 88.785 31.7347Z" fill="black"/>
<path d="M30.582 26.4728V23.9368C31.041 23.5818 31.622 23.9268 32.102 23.6968C32.742 20.5308 34.754 19.3748 38.07 20.3618C38.013 21.0618 37.955 21.7788 37.891 22.5618C37.037 22.6828 35.917 22.2678 35.591 23.7078H37.75C37.9127 24.659 37.9544 25.627 37.874 26.5888H35.456V34.8528H32.289V26.8748C31.703 26.4288 31.109 26.8098 30.582 26.4728Z" fill="black"/>
<path d="M31.092 3.45074L32.46 3.35075C32.86 2.73475 32.486 2.03675 32.76 1.34375C33.7432 1.13269 34.7454 1.02212 35.751 1.01375C36.099 1.76175 35.719 2.57475 36.03 3.37575H37.997C38.2128 4.2753 38.2468 5.20888 38.097 6.12175L35.908 6.23975C35.908 7.77175 35.837 9.24575 35.928 10.7097C36.018 12.1437 37.269 11.6777 38.205 11.8587C38.244 12.6637 38.283 13.4658 38.321 14.2478C35.121 15.4678 32.721 13.8908 32.66 10.5768C32.635 9.17675 32.66 7.78575 32.66 6.43475C32.221 5.97175 31.651 6.34075 31.16 6.04276C31.0308 5.18484 31.008 4.31425 31.092 3.45074Z" fill="black"/>
<path d="M55.199 34.8577H52.05V23.6907C53.091 23.7997 54.183 23.3197 55.323 24.1457C55.8147 23.7852 56.3876 23.551 56.9911 23.4638C57.5946 23.3767 58.2103 23.4391 58.784 23.6457V26.4457C58.469 26.7067 58.184 26.5457 57.908 26.5407C57.5494 26.4847 57.1826 26.5124 56.8365 26.6217C56.4903 26.731 56.1742 26.9189 55.9127 27.1706C55.6512 27.4224 55.4516 27.7313 55.3293 28.0731C55.2071 28.4148 55.1655 28.7802 55.208 29.1407C55.18 31.0197 55.199 32.9007 55.199 34.8577Z" fill="#010101"/>
<path d="M16.292 0.0917575V14.2978H13.168V0.0977542C14.2053 -0.0305478 15.2543 -0.0325592 16.292 0.0917575Z" fill="#010101"/>
</svg>
