<svg width="108" height="43" viewBox="0 0 108 43" fill="none" xmlns="http://www.w3.org/2000/svg">
<path d="M85.623 42.1638H81.544C81.544 39.6578 81.555 37.2338 81.544 34.8098C81.534 33.1278 80.959 32.3438 79.812 32.3758C78.556 32.4108 77.705 33.4088 77.692 34.9398C77.672 37.3198 77.687 39.6998 77.687 42.1628H73.6C73.6 37.7321 73.6 33.2935 73.6 28.8468C76.019 28.2828 77.206 28.5038 77.668 29.6068C80.732 27.8938 82.436 27.9948 84.737 30.0698C85.4648 29.3985 86.3474 28.9176 87.306 28.6698C90.66 27.7698 93.263 29.5218 93.712 32.9748C93.8975 35.5036 93.9529 38.0403 93.878 40.5748C93.891 41.0618 93.878 41.5498 93.878 42.1388H89.807C89.807 39.6878 89.798 37.2668 89.807 34.8458C89.814 33.5858 89.536 32.5068 88.05 32.3788C87.7139 32.3663 87.3791 32.426 87.0681 32.5541C86.7571 32.6821 86.4772 32.8755 86.2474 33.121C86.0176 33.3666 85.8432 33.6586 85.7359 33.9774C85.6287 34.2962 85.5913 34.6343 85.626 34.9688C85.612 37.3518 85.623 39.7268 85.623 42.1638Z" fill="#F9F7F4"/>
<path d="M12.137 5.87569C10.2 3.52869 7.007 3.11668 4.012 4.75468C2.861 3.15468 1.319 4.22269 0 3.90569V21.2947H3.767V16.4667C7.145 18.2337 10.412 17.7847 12.275 15.4747C13.2605 14.0619 13.7774 12.3753 13.7526 10.653C13.7279 8.9306 13.1627 7.25952 12.137 5.87569ZM6.906 14.0127C6.05715 13.9835 5.25337 13.6236 4.6663 13.0098C4.07923 12.396 3.75541 11.577 3.764 10.7277C3.75865 9.90271 4.07391 9.1079 4.6433 8.5109C5.21269 7.91389 5.99169 7.56137 6.816 7.52768C7.22675 7.52683 7.63329 7.61034 8.01044 7.77303C8.3876 7.93571 8.72733 8.17412 9.00858 8.47347C9.28984 8.77281 9.50662 9.12672 9.64551 9.51328C9.78439 9.89983 9.84243 10.3108 9.816 10.7207C9.84541 11.1288 9.79306 11.5387 9.66202 11.9264C9.53098 12.3141 9.32388 12.6717 9.05286 12.9783C8.78185 13.2849 8.45236 13.5343 8.08371 13.7119C7.71506 13.8895 7.31467 13.9918 6.906 14.0127Z" fill="#F9F7F4"/>
<path d="M31.509 4.8288C30.3029 3.99751 28.8415 3.62008 27.3838 3.7634C25.926 3.90673 24.5661 4.56154 23.545 5.61179C21.363 7.97679 21.285 12.6758 23.39 15.3118C25.372 17.7988 28.601 18.2328 31.683 16.4238C32.003 17.4698 33.417 17.7238 35.623 17.1498V3.87681C34.247 4.32881 32.642 3.2288 31.509 4.8288ZM28.825 13.8058C28.415 13.8059 28.0092 13.7223 27.6325 13.5603C27.2558 13.3983 26.9161 13.1612 26.6341 12.8635C26.3522 12.5658 26.1338 12.2138 25.9925 11.8288C25.8511 11.4439 25.7897 11.0342 25.812 10.6248C25.7699 10.2156 25.8131 9.80209 25.9389 9.41042C26.0647 9.01876 26.2704 8.65744 26.5429 8.3493C26.8154 8.04115 27.1489 7.79288 27.5222 7.62015C27.8956 7.44743 28.3007 7.35401 28.712 7.3458C29.5374 7.37306 30.3205 7.71779 30.898 8.30816C31.4755 8.89853 31.8029 9.68897 31.812 10.5148C31.8242 11.3404 31.5225 12.1399 30.9678 12.7515C30.4131 13.3632 29.6469 13.7415 28.824 13.8098L28.825 13.8058Z" fill="#F9F7F4"/>
<path d="M53.774 28.1857C52.8137 28.1613 51.8584 28.3323 50.9661 28.6883C50.0738 29.0443 49.2632 29.5778 48.5833 30.2565C47.9035 30.9352 47.3686 31.745 47.0112 32.6367C46.6538 33.5283 46.4812 34.4833 46.504 35.4437C46.4829 36.4171 46.6609 37.3845 47.0272 38.2865C47.3935 39.1885 47.9403 40.0062 48.6341 40.6892C49.3278 41.3723 50.1538 41.9064 51.0614 42.2586C51.9691 42.6109 52.9391 42.7739 53.912 42.7377C54.8717 42.7726 55.8281 42.6074 56.7205 42.2525C57.6129 41.8977 58.4217 41.3611 59.0954 40.6767C59.7691 39.9924 60.293 39.1753 60.6338 38.2775C60.9746 37.3797 61.1249 36.4208 61.075 35.4617C61.1269 34.4904 60.9734 33.5191 60.6245 32.6112C60.2756 31.7032 59.7392 30.879 59.0502 30.1924C58.3613 29.5058 57.5352 28.9722 56.6261 28.6264C55.717 28.2807 54.7451 28.1305 53.774 28.1857ZM53.813 38.8857C53.3638 38.8846 52.9199 38.7888 52.5103 38.6046C52.1007 38.4203 51.7345 38.1517 51.4357 37.8163C51.1369 37.4809 50.9123 37.0863 50.7764 36.6581C50.6404 36.23 50.5964 35.778 50.647 35.3317C50.6258 34.8959 50.6951 34.4605 50.8504 34.0528C51.0058 33.6451 51.244 33.274 51.5498 32.9628C51.8557 32.6517 52.2227 32.4073 52.6277 32.2449C53.0327 32.0826 53.4669 32.006 53.903 32.0197C54.7832 32.0478 55.6178 32.418 56.2295 33.0515C56.8412 33.685 57.1818 34.5321 57.179 35.4127C57.1804 36.3158 56.8295 37.1838 56.201 37.8322C55.5724 38.4805 54.7157 38.8582 53.813 38.8847V38.8857Z" fill="#F9F7F4"/>
<path d="M54.582 12.7578V10.5308H104.475C104.705 11.2502 104.751 12.0158 104.61 12.7578H54.582Z" fill="#F9F7F4"/>
<path d="M107.437 38.3977C107.424 39.1464 107.187 39.8742 106.758 40.4877C105.117 42.7207 102.722 42.7877 100.307 42.5237C98.119 42.2817 96.46 41.2557 95.993 38.8917L95.793 37.8787C97.428 37.8457 99.162 37.0627 100.561 38.6887C100.941 39.1277 101.667 39.0717 102.261 38.9577C102.751 38.8647 103.304 38.7577 103.31 38.1177C103.316 37.4777 102.775 37.3107 102.273 37.2957C100.889 37.2262 99.5176 36.9974 98.186 36.6137C96.132 34.9967 95.633 33.7257 96.24 31.6337C96.88 29.4337 98.608 28.6767 100.64 28.4077C103.588 28.0187 107.085 29.2357 107.112 33.0077C105.599 32.8407 103.912 33.6867 102.634 32.1017C102.326 31.7217 101.603 31.8357 101.059 31.9257C100.602 32.0007 100.168 32.1737 100.141 32.7257C100.111 33.3207 100.565 33.4547 101.029 33.5027C101.863 33.5867 102.7 33.6377 103.534 33.7027C106.6 34.9297 107.535 36.0717 107.437 38.3977Z" fill="#F9F7F4"/>
<path d="M37.006 32.0298V28.9608C37.562 28.5318 38.265 28.9488 38.846 28.6708C39.621 24.8398 42.056 23.4408 46.068 24.6358C46 25.4778 45.928 26.3498 45.851 27.3018C44.818 27.4488 43.462 26.9468 43.065 28.6878H45.682C45.8785 29.8389 45.9286 31.0102 45.831 32.1738H42.906V42.1738H39.074V32.5178C38.362 31.9758 37.644 32.4368 37.006 32.0298Z" fill="#F9F7F4"/>
<path d="M37.623 4.1707L39.278 4.0497C39.767 3.3037 39.309 2.4597 39.637 1.6207C40.8267 1.36511 42.0392 1.23109 43.256 1.2207C43.677 2.1257 43.217 3.1097 43.593 4.0787H45.974C46.2337 5.16722 46.2734 6.29661 46.091 7.4007L43.442 7.5437C43.442 9.3977 43.356 11.1807 43.466 12.9527C43.574 14.6887 45.089 14.1247 46.221 14.3437C46.268 15.3187 46.315 16.2877 46.361 17.2347C42.489 18.7107 39.582 16.8027 39.511 12.7927C39.481 11.1047 39.511 9.4157 39.511 7.7807C38.98 7.2207 38.29 7.66769 37.696 7.30569C37.5429 6.26767 37.5184 5.21473 37.623 4.1707Z" fill="#F9F7F4"/>
<path d="M66.802 42.1727H62.992V28.6597C64.252 28.7917 65.573 28.2107 66.953 29.2097C67.5484 28.774 68.2418 28.4914 68.9721 28.3868C69.7024 28.2822 70.4472 28.3587 71.141 28.6097V31.9967C70.759 32.3127 70.411 32.1167 70.081 32.1117C67.966 32.0787 66.846 33.1177 66.811 35.2607C66.773 37.5317 66.802 39.8077 66.802 42.1727Z" fill="#F9F7F4"/>
<path d="M19.715 0.106763V17.2978H15.935V0.122769C17.1897 -0.0353789 18.459 -0.0407579 19.715 0.106763Z" fill="#F9F7F4"/>
</svg>
